<svg width="25" height="24" viewBox="0 0 25 24" fill="none" xmlns="http://www.w3.org/2000/svg">
<rect width="24" height="24" transform="translate(0.5)" fill="black"/>
<path d="M21.7806 18.424C21.4327 19.2275 21.021 19.9672 20.544 20.6473C19.8938 21.5743 19.3614 22.216 18.9511 22.5724C18.315 23.1573 17.6336 23.4569 16.9039 23.4739C16.38 23.4739 15.7482 23.3248 15.0128 23.0224C14.275 22.7214 13.5969 22.5724 12.9769 22.5724C12.3267 22.5724 11.6293 22.7214 10.8834 23.0224C10.1364 23.3248 9.53456 23.4824 9.07444 23.498C8.37466 23.5278 7.67716 23.2198 6.98093 22.5724C6.53656 22.1848 5.98075 21.5204 5.3149 20.5791C4.60051 19.574 4.01317 18.4084 3.55304 17.0795C3.06026 15.6442 2.81323 14.2543 2.81323 12.9087C2.81323 11.3673 3.1463 10.0379 3.81342 8.92386C4.33772 8.02902 5.03522 7.32314 5.9082 6.80495C6.78118 6.28675 7.72443 6.02269 8.74024 6.00579C9.29605 6.00579 10.0249 6.17772 10.9307 6.51561C11.8339 6.85464 12.4139 7.02656 12.6681 7.02656C12.8582 7.02656 13.5025 6.82553 14.5947 6.42475C15.6275 6.05307 16.4992 5.89917 17.2133 5.95979C19.1484 6.11596 20.6022 6.87877 21.569 8.25305C19.8384 9.30165 18.9823 10.7703 18.9993 12.6544C19.015 14.122 19.5474 15.3432 20.5937 16.3129C21.0679 16.7629 21.5974 17.1108 22.1866 17.3578C22.0588 17.7283 21.9239 18.0833 21.7806 18.424ZM17.3425 0.960146C17.3425 2.11041 16.9223 3.1844 16.0847 4.17848C15.0738 5.36025 13.8512 6.04313 12.5253 5.93537C12.5084 5.79738 12.4986 5.65214 12.4986 5.49952C12.4986 4.39527 12.9793 3.21351 13.833 2.24725C14.2592 1.75802 14.8013 1.35123 15.4586 1.02673C16.1145 0.707068 16.7349 0.530288 17.3184 0.500015C17.3354 0.653787 17.3425 0.807569 17.3425 0.960131V0.960146Z" fill="white"/>
</svg>
