<svg width="16" height="16" viewBox="0 0 16 16" fill="none" xmlns="http://www.w3.org/2000/svg">
<g id="noun_filters_220951">
<g id="Group">
<path id="Shape" fill-rule="evenodd" clip-rule="evenodd" d="M10.0566 7.37575H15.4852C15.7328 7.37575 15.9614 7.60989 15.9614 7.86355C15.9614 8.13672 15.7519 8.35136 15.4852 8.35136H10.0566C9.84712 9.34648 8.97093 10.0879 7.94235 10.0879C6.91378 10.0879 6.03759 9.34648 5.82807 8.35136H0.532831C0.266164 8.35136 0.0566406 8.13672 0.0566406 7.86355C0.0566406 7.59038 0.266164 7.37575 0.532831 7.37575H5.82807C6.03759 6.38062 6.91378 5.63916 7.94235 5.63916C8.97093 5.63916 9.84712 6.38062 10.0566 7.37575ZM6.72331 7.86355C6.72331 8.54648 7.27569 9.11233 7.94235 9.11233C8.60902 9.11233 9.1614 8.54648 9.1614 7.86355C9.1614 7.18062 8.60902 6.61477 7.94235 6.61477C7.27569 6.61477 6.72331 7.18062 6.72331 7.86355Z" fill="#4E4B66"/>
<path id="Shape_2" fill-rule="evenodd" clip-rule="evenodd" d="M4.36189 2.7122C4.15236 3.70732 3.27617 4.44878 2.2476 4.44878C1.0476 4.44878 0.0761719 3.43415 0.0761719 2.22439C0.0761719 1.01463 1.0476 0 2.2476 0C3.27617 0 4.15236 0.741463 4.36189 1.73659H15.4666C15.7333 1.73659 15.9428 1.95122 15.9428 2.22439C15.9428 2.49756 15.7333 2.7122 15.4666 2.7122H4.36189ZM3.46665 2.22439C3.46665 1.54146 2.91427 0.97561 2.2476 0.97561C1.58093 0.97561 1.02855 1.54146 1.02855 2.22439C1.02855 2.90732 1.58093 3.47317 2.2476 3.47317C2.91427 3.47317 3.46665 2.90732 3.46665 2.22439Z" fill="#4E4B66"/>
<path id="Shape_3" fill-rule="evenodd" clip-rule="evenodd" d="M11.6566 13.034C11.8852 12.0584 12.7424 11.3169 13.7709 11.3169C14.9519 11.3169 15.9424 12.312 15.9424 13.5413C15.9424 14.7706 14.9709 15.7657 13.7709 15.7657C12.7424 15.7657 11.8662 15.0047 11.6566 14.0096H0.532831C0.266164 14.0096 0.0566406 13.7949 0.0566406 13.5218C0.0566406 13.2486 0.266164 13.034 0.532831 13.034H11.6566ZM12.5519 13.5218C12.5519 14.2047 13.1043 14.7706 13.7709 14.7706C14.4376 14.7706 14.99 14.2047 14.99 13.5218C14.99 12.8388 14.4376 12.273 13.7709 12.273C13.1043 12.273 12.5519 12.8388 12.5519 13.5218Z" fill="#4E4B66"/>
</g>
</g>
</svg>
