<svg width="18" height="18" viewBox="0 0 18 18" fill="none" xmlns="http://www.w3.org/2000/svg">
<rect width="18" height="18" rx="9" fill="url(#paint0_linear_990_201)" fill-opacity="0.2"/>
<path fill-rule="evenodd" clip-rule="evenodd" d="M11.1402 6.85983C11.2866 7.00628 11.2866 7.24372 11.1402 7.39017L7.39017 11.1402C7.24372 11.2866 7.00628 11.2866 6.85983 11.1402C6.71339 10.9937 6.71339 10.7563 6.85983 10.6098L10.6098 6.85983C10.7563 6.71339 10.9937 6.71339 11.1402 6.85983Z" fill="#007C5B"/>
<path fill-rule="evenodd" clip-rule="evenodd" d="M7.125 6.75C7.33211 6.75 7.5 6.91789 7.5 7.125V10.5H10.875C11.0821 10.5 11.25 10.6679 11.25 10.875C11.25 11.0821 11.0821 11.25 10.875 11.25H7.125C6.91789 11.25 6.75 11.0821 6.75 10.875V7.125C6.75 6.91789 6.91789 6.75 7.125 6.75Z" fill="#007C5B"/>
<defs>
<linearGradient id="paint0_linear_990_201" x1="5.75819" y1="6" x2="28.2942" y2="10.9067" gradientUnits="userSpaceOnUse">
<stop stop-color="#008D6C"/>
<stop offset="1" stop-color="#11FFC7"/>
</linearGradient>
</defs>
</svg>
